<svg width="22" height="21" viewBox="0 0 22 21" fill="none" xmlns="http://www.w3.org/2000/svg">
<g clip-path="url(#clip0_33_137)">
<path d="M10.9999 11.5326C10.6611 11.5326 10.3361 11.398 10.0965 11.1584C9.8569 10.9188 9.7223 10.5939 9.7223 10.255C9.7223 9.91617 9.8569 9.5912 10.0965 9.3516C10.3361 9.112 10.6611 8.9774 10.9999 8.9774C11.3388 8.9774 11.6637 9.112 11.9033 9.3516C12.1429 9.5912 12.2775 9.91617 12.2775 10.255C12.2775 10.5939 12.1429 10.9188 11.9033 11.1584C11.6637 11.398 11.3388 11.5326 10.9999 11.5326ZM10.5502 14.0827C10.6992 14.2616 10.8492 14.4353 10.9999 14.6014C11.1507 14.4353 11.3006 14.2624 11.4496 14.0827C11.1498 14.0891 10.85 14.0891 10.5502 14.0827ZM8.85097 13.9763C8.19689 13.9082 7.54713 13.8036 6.90474 13.6628C6.84086 13.9609 6.79231 14.2505 6.75995 14.5282C6.59812 15.8765 6.82383 16.6959 7.16708 16.8935C7.51033 17.0919 8.33226 16.8773 9.41993 16.0639C9.64394 15.8961 9.86965 15.7096 10.0962 15.506C9.65288 15.0197 9.23715 14.509 8.85097 13.9763ZM15.0951 13.6628C14.4844 13.7991 13.8319 13.9047 13.1488 13.9763C12.7627 14.509 12.3469 15.0197 11.9036 15.506C12.1302 15.7104 12.3559 15.8961 12.5799 16.0639C13.6676 16.8773 14.4895 17.0919 14.8327 16.8935C15.176 16.6959 15.4008 15.8765 15.2407 14.5282C15.2056 14.2377 15.1573 13.9489 15.0959 13.6628H15.0951ZM16.3301 13.3332C16.8216 15.5809 16.5635 17.3704 15.4715 18.0007C14.3796 18.631 12.7008 17.9598 10.9999 16.4105C9.29899 17.9598 7.62021 18.6302 6.52828 17.9999C5.43634 17.3696 5.17827 15.5809 5.66887 13.3323C3.47649 12.6348 2.05664 11.5156 2.05664 10.255C2.05664 8.99443 3.47649 7.8761 5.66887 7.17682C5.17827 4.92908 5.43634 3.13957 6.52828 2.50929C7.62021 1.879 9.29899 2.55017 10.9999 4.09948C12.7008 2.55017 14.3796 1.87985 15.4715 2.51014C16.5635 3.14042 16.8216 4.92908 16.3309 7.17767C18.5233 7.87525 19.9432 8.99443 19.9432 10.255C19.9432 11.5156 18.5233 12.6339 16.3309 13.3332H16.3301ZM10.0954 5.00403C9.87876 4.80797 9.65338 4.62181 9.41993 4.44614C8.33226 3.63273 7.51033 3.41809 7.16708 3.61655C6.82383 3.81415 6.59897 4.63352 6.7591 5.98183C6.79317 6.26035 6.84086 6.54909 6.90389 6.8472C7.54655 6.70643 8.1966 6.60179 8.85097 6.53376C9.25555 5.97757 9.6729 5.46568 10.0962 5.00403H10.0954ZM13.1488 6.53376C13.8319 6.6053 14.4844 6.71177 15.0951 6.8472C15.159 6.54909 15.2075 6.2595 15.2399 5.98183C15.4017 4.63352 15.176 3.81415 14.8327 3.61655C14.4895 3.41809 13.6676 3.63273 12.5799 4.44614C12.3461 4.62179 12.1205 4.80795 11.9036 5.00403C12.3269 5.46568 12.7443 5.97757 13.1488 6.53376ZM11.4496 6.42729C11.3006 6.24842 11.1507 6.07467 10.9999 5.90858C10.8492 6.07467 10.6992 6.24757 10.5502 6.42729C10.85 6.42093 11.1498 6.42093 11.4496 6.42729ZM7.9098 12.5581C7.7544 12.3018 7.60446 12.0423 7.46008 11.7796C7.37916 11.9985 7.30421 12.214 7.23607 12.4278C7.45497 12.4755 7.67983 12.5189 7.90895 12.5581H7.9098ZM9.55536 12.7574C10.5171 12.8289 11.4828 12.8289 12.4445 12.7574C12.9872 11.9602 13.47 11.1237 13.889 10.255C13.47 9.3863 12.9872 8.54987 12.4445 7.7526C11.4828 7.68117 10.5171 7.68117 9.55536 7.7526C9.01263 8.54987 8.52978 9.3863 8.11081 10.255C8.52978 11.1237 9.01263 11.9602 9.55536 12.7574ZM14.5397 8.73039C14.6207 8.5115 14.6956 8.29601 14.7637 8.08222C14.5405 8.03377 14.3161 7.99032 14.0909 7.9519C14.246 8.2082 14.3956 8.46775 14.5397 8.73039ZM6.0002 8.4127C5.7106 8.50639 5.43634 8.6086 5.17912 8.71932C3.93132 9.25421 3.33425 9.85895 3.33425 10.255C3.33425 10.6511 3.93047 11.2558 5.17912 11.7907C5.43634 11.9014 5.7106 12.0036 6.0002 12.0973C6.18928 11.5011 6.42351 10.8827 6.70288 10.255C6.43443 9.65451 6.19984 9.03944 6.0002 8.4127ZM7.23522 8.08222C7.30421 8.29516 7.37916 8.5115 7.46008 8.72954C7.60447 8.46718 7.75441 8.20791 7.9098 7.9519C7.67983 7.99108 7.45497 8.03452 7.23607 8.08222H7.23522ZM15.9996 12.0973C16.2892 12.0036 16.5635 11.9014 16.8207 11.7907C18.0685 11.2558 18.6656 10.6511 18.6656 10.255C18.6656 9.85895 18.0693 9.25421 16.8207 8.71932C16.5518 8.60476 16.2778 8.50245 15.9996 8.4127C15.8105 9.00891 15.5763 9.62728 15.2969 10.255C15.5763 10.8827 15.8105 11.5003 15.9996 12.0973ZM14.7646 12.4278C14.6956 12.2149 14.6207 11.9985 14.5397 11.7805C14.3953 12.0428 14.2454 12.3021 14.09 12.5581C14.32 12.5189 14.5449 12.4755 14.7637 12.4278H14.7646Z" fill="#011221"/>
</g>
<defs>
<clipPath id="clip0_33_137">
<rect width="20.4418" height="20.4418" fill="white" transform="translate(0.779053 0.0341187)"/>
</clipPath>
</defs>
</svg>
